<?xml version="1.0" standalone="no"?><!DOCTYPE svg PUBLIC "-//W3C//DTD SVG 1.1//EN" "http://www.w3.org/Graphics/SVG/1.1/DTD/svg11.dtd"><svg width="24" height="24" viewBox="0 0 24 24" version="1.1" xmlns="http://www.w3.org/2000/svg" xmlns:xlink="http://www.w3.org/1999/xlink"><defs><style type="text/css"><![CDATA[
@font-face { font-family: ifont; src: url("http://at.alicdn.com/t/font_1442373896_4754455.eot?#iefix") format("embedded-opentype"), url("http://at.alicdn.com/t/font_1442373896_4754455.woff") format("woff"), url("http://at.alicdn.com/t/font_1442373896_4754455.ttf") format("truetype"), url("http://at.alicdn.com/t/font_1442373896_4754455.svg#ifont") format("svg"); }

]]></style></defs><g class="transform-group"><g transform="scale(0.0234375, 0.0234375)"><path d="M732.379735 932.456051c-126.273938 0-228.634234-102.358249-228.634234-228.637304 0-126.273938 102.359272-228.634234 228.634234-228.634234 126.278031 0 228.637304 102.360296 228.637304 228.634234C961.017038 830.097802 858.658789 932.456051 732.379735 932.456051L732.379735 932.456051zM664.933623 596.362386c-9.153474-14.468526-16.394389-25.89067-21.720697-34.295084l-40.010249 20.573571c2.286066 4.567016 6.090718 11.060917 11.43954 19.436678 10.664897 17.530258 18.281365 30.489408 22.854521 38.860053L679.796122 619.23635C676.742577 613.901855 671.792844 606.275153 664.933623 596.362386L664.933623 596.362386zM861.559862 764.407684c-11.42419-9.153474-32.399921-23.622-62.872956-43.448558l-20.578688 19.451004c4.583388-6.859221 7.611352-14.869662 9.146311-24.015973l78.877465 0 0-40.013319-75.456552 0c0-6.857175 0-14.464433 0-22.870894l68.598354 0 0-41.137932-35.44835 0c6.861268-10.660804 11.047614-17.520025 12.593829-20.573571 3.805676-6.099928 6.858198-10.664897 9.136078-13.726629l-45.726437-16.005532c-5.509481 12.691043-7.385201 17.066701-5.725398 13.397125-7.395434 16.504906-13.181207 28.980032-17.147542 36.908608l-36.572964 0 24.006763-10.295484c-2.278903-3.046383-6.116301-8.752338-11.431354-17.146519-6.859221-10.664897-11.82635-18.301831-14.862499-22.864754l-41.153282 18.281365c6.860245 9.155521 14.093996 19.836791 21.719674 32.024367l-32.006971 0 0 41.137932 57.149605 0c0 8.40646 0 16.012695 0 22.870894l-67.447135 0 0 40.013319 62.883189 0c-4.573155 16.773012-23.99653 32.401967-58.301847 46.870494 2.27788 3.053546 5.716188 7.253194 10.290367 12.565177 5.331425 6.119371 9.144264 10.700713 11.42112 13.726629-14.476713-3.025916-26.292829-10.660804-35.428907-22.86066L667.221736 655.807267l-73.15309 0 0 43.438325 27.418466 0 0 64.019059c-3.038196 2.286066-7.242961 5.708002-12.576433 10.29753-6.858198 6.112208-12.189623 10.673084-15.995299 13.718443l17.148565 52.578496c6.857175-9.146311 18.281365-21.721721 34.294061-37.732369 13.718443 18.297738 35.440164 27.817556 65.153906 28.587082 16.763802 0.74906 42.305525 1.143033 76.599585 1.143033 29.731138 0.74906 54.114478 1.143033 73.163323 1.143033 0.750083-3.055592 1.89414-6.859221 3.430122-11.42419 3.804652-12.967336 6.868431-23.25668 9.136078-30.873148-9.912767 0-21.336958 0-34.295084 0L861.559862 764.407684 861.559862 764.407684zM724.378503 790.70256c22.864754-12.95915 39.243793-26.677593 49.157583-41.154305 14.46955 11.440563 31.241538 25.140587 50.290383 41.154305C782.690584 791.459806 749.520113 791.459806 724.378503 790.70256L724.378503 790.70256zM678.134273 448.892707 389.135206 166.400844 130.010541 465.504036 607.427908 465.504036c-24.88169 12.102642-47.582715 27.892257-67.357084 46.817282L64.764538 512.321318l0-46.817282L389.135206 91.079368l344.585059 348.046904c-3.518127-0.13303-6.945179-0.525979-10.491958-0.525979C698.049858 438.600293 701.230294 442.3415 678.134273 448.892707L678.134273 448.892707zM111.108029 793.122679l0-46.808072 55.488779 0L166.596807 559.110971l37.175691 0 0 187.202613 55.492872 0L259.26537 559.110971l37.188994 0 0 187.202613 55.479569 0L351.933933 559.110971l37.201274 0 0 187.202613 55.479569 0L444.614775 559.110971l37.187971 0 0 35.366486c-15.140839 33.375132-23.777543 70.314439-23.777543 109.342314 0 70.985728 28.051893 135.306662 73.471338 182.907797L64.764538 886.727567 64.764538 839.922565l46.343491 0L111.108029 793.122679 111.108029 793.122679z"></path></g></g></svg>